<svg width="39" height="32" viewBox="0 0 39 32" fill="none" xmlns="http://www.w3.org/2000/svg">
<rect x="1.5" y="1.5" width="36" height="29" rx="5.5" fill="#F2F2F2" fill-opacity="0.1" stroke="#CCCCCC" stroke-width="3"/>
<path d="M10.8262 17.5244C10.8262 12.4971 12.874 9.9834 16.9697 9.9834C17.6143 9.9834 18.1592 10.0332 18.6045 10.1328V11.8555C18.1592 11.7266 17.6436 11.6621 17.0576 11.6621C15.6807 11.6621 14.6465 12.0312 13.9551 12.7695C13.2637 13.5078 12.8887 14.6914 12.8301 16.3203H12.9355C13.2109 15.8457 13.5977 15.4795 14.0957 15.2217C14.5938 14.958 15.1797 14.8262 15.8535 14.8262C17.0195 14.8262 17.9277 15.1836 18.5781 15.8984C19.2285 16.6133 19.5537 17.583 19.5537 18.8076C19.5537 20.1553 19.1758 21.2217 18.4199 22.0068C17.6699 22.7861 16.6445 23.1758 15.3438 23.1758C14.4238 23.1758 13.624 22.9561 12.9443 22.5166C12.2646 22.0713 11.7402 21.4268 11.3711 20.583C11.0078 19.7334 10.8262 18.7139 10.8262 17.5244ZM15.3086 21.4707C16.0176 21.4707 16.5625 21.2422 16.9434 20.7852C17.3301 20.3281 17.5234 19.6748 17.5234 18.8252C17.5234 18.0869 17.3418 17.5068 16.9785 17.085C16.6211 16.6631 16.082 16.4521 15.3613 16.4521C14.916 16.4521 14.5059 16.5488 14.1309 16.7422C13.7559 16.9297 13.46 17.1904 13.2432 17.5244C13.0264 17.8525 12.918 18.1895 12.918 18.5352C12.918 19.3613 13.1406 20.0586 13.5859 20.627C14.0371 21.1895 14.6113 21.4707 15.3086 21.4707ZM24.625 17.4365H21.127V15.8721H24.625V12.2861H26.207V15.8721H29.7139V17.4365H26.207V21.0049H24.625V17.4365Z" fill="#CCCCCC"/>
</svg>
