<svg width="211" height="68" viewBox="0 0 211 68" fill="none" xmlns="http://www.w3.org/2000/svg">
<path fill-rule="evenodd" clip-rule="evenodd" d="M16.0126 0.799988H0.0766022V67.9302C8.71034 66.8647 17.7853 65.9269 27.2345 65.1298C27.7171 64.7754 28.1685 64.3881 28.5886 63.968C31.3406 61.216 32.7166 57.248 32.7166 52.064V46.304C32.7166 38.752 30.0926 34.08 24.8446 32.288V32.096C27.1486 31.136 28.8446 29.568 29.9326 27.392C31.0846 25.216 31.6606 22.4 31.6606 18.944V16.256C31.6606 11.008 30.4126 7.13599 27.9166 4.63999C25.4206 2.07999 21.4526 0.799988 16.0126 0.799988ZM49.4491 63.5595C45.8869 63.7647 42.3659 63.989 38.8891 64.232V0.799988H49.4491V63.5595ZM76.1739 62.4114C72.6226 62.5137 69.1017 62.6346 65.6139 62.7736V10.4H54.5739V0.799988H87.2139V10.4H76.1739V62.4114ZM102.887 62.0022C99.3436 62.0095 95.8229 62.0352 92.3266 62.0788V0.799988H120.263V10.4H102.887V29.12H116.519V38.72H102.887V62.0022ZM153.263 63.1696C144.181 62.7206 134.853 62.3954 125.327 62.2035V0.799988H135.887V58.4H153.263V63.1696ZM168.887 64.0795C165.409 63.8457 161.888 63.6304 158.327 63.4342V0.799988H168.887V64.0795ZM184.805 65.3046C181.629 65.0282 178.409 64.7679 175.148 64.5241L186.107 33.632L174.491 0.799988H185.627L192.731 22.496H192.923L200.219 0.799988H210.203L198.587 33.632L210.779 68H210.487C206.809 67.5427 203.051 67.1087 199.217 66.6989L191.963 44.576H191.771L184.805 65.3046ZM19.4686 26.528C18.4446 27.616 16.8766 28.16 14.7646 28.16H10.6366V10.4H15.7246C17.5806 10.4 18.9246 10.944 19.7566 12.032C20.6526 13.12 21.1006 14.88 21.1006 17.312V21.056C21.1006 23.616 20.5566 25.44 19.4686 26.528ZM20.8126 56.96C19.9166 57.92 18.5406 58.4 16.6846 58.4H10.6366V37.76H15.3406C17.7726 37.76 19.5006 38.368 20.5246 39.584C21.6126 40.736 22.1566 42.848 22.1566 45.92V51.776C22.1566 54.208 21.7086 55.936 20.8126 56.96Z" fill="#43B0ED"/>
</svg>
